<?xml version="1.0" standalone="no"?><!DOCTYPE svg PUBLIC "-//W3C//DTD SVG 1.1//EN" "http://www.w3.org/Graphics/SVG/1.1/DTD/svg11.dtd"><svg viewBox="4.703999996185303 2.7400031089782715 48.560001373291016 67.17999267578125" role="img" preserveAspectRatio="xMidYMid meet" style="bottom:0px;display:block;height:84px;left:0px;position:absolute;right:0px;top:0px;width:75px;perspective-origin:37.5px 42px;transform-origin:37.5px 42px;stroke:rgb(237, 21, 102);stroke-width:0px;" version="1.1" xmlns="http://www.w3.org/2000/svg" xmlns:xlink="http://www.w3.org/1999/xlink">
    <g style="height:auto;overflow-x:visible;overflow-y:visible;width:auto;perspective-origin:0px 0px;transform-origin:0px 0px;stroke:rgb(237, 21, 102);stroke-width:0px;vector-effect:non-scaling-stroke;">
        <path d="M41.334 41.263l1.58-5.84 6.074-3.966-2.582-6.78 2.582-6.779-6.074-3.966-1.895-7.003-7.246.362-5.649-4.551-5.649 4.551-7.246-.362-1.896 7.003-6.073 3.966 2.582 6.779-2.582 6.78 6.074 3.966 2.489 7.609L4.704 63.334l9.251-3.083 3.021 9.668 12.021-23.223L41.011 69.92l3.021-9.668 9.232 3.077-11.93-22.066zM17.188 65.026l-2.179-6.973-6.35 2.117 9.577-17.488.774-.113 3.24-.161 4.8 3.564-9.862 19.054zm11.128-21.133l-4.901-3.638-.279-.225-.022.001-4.142.207-2.232.111-1.674-6.183-5.363-3.502 2.28-5.986-2.28-5.985 5.363-3.502 1.674-6.183 6.397.319 4.988-4.018 4.988 4.018 6.397-.319 1.673 6.183 5.363 3.502-2.28 5.985 2.28 5.986-5.363 3.502-1.673 6.183-6.397-.319-4.797 3.863zm14.416 13.816l-2.179 6.972-10.252-19.819 3.473-2.798 5.879.294L49.1 59.832l-6.368-2.123z" style="height:auto;overflow-x:visible;overflow-y:visible;width:auto;perspective-origin:0px 0px;transform-origin:0px 0px;stroke:rgb(237, 21, 102);stroke-width:0px;vector-effect:non-scaling-stroke;d:path('M 41.334 41.263 l 1.58 -5.84 l 6.074 -3.966 l -2.582 -6.78 l 2.582 -6.779 l -6.074 -3.966 l -1.895 -7.003 l -7.246 0.362 l -5.649 -4.551 l -5.649 4.551 l -7.246 -0.362 l -1.896 7.003 l -6.073 3.966 l 2.582 6.779 l -2.582 6.78 l 6.074 3.966 l 2.489 7.609 L 4.704 63.334 l 9.251 -3.083 l 3.021 9.668 l 12.021 -23.223 L 41.011 69.92 l 3.021 -9.668 l 9.232 3.077 l -11.93 -22.066 Z M 17.188 65.026 l -2.179 -6.973 l -6.35 2.117 l 9.577 -17.488 l 0.774 -0.113 l 3.24 -0.161 l 4.8 3.564 l -9.862 19.054 Z m 11.128 -21.133 l -4.901 -3.638 l -0.279 -0.225 l -0.022 0.001 l -4.142 0.207 l -2.232 0.111 l -1.674 -6.183 l -5.363 -3.502 l 2.28 -5.986 l -2.28 -5.985 l 5.363 -3.502 l 1.674 -6.183 l 6.397 0.319 l 4.988 -4.018 l 4.988 4.018 l 6.397 -0.319 l 1.673 6.183 l 5.363 3.502 l -2.28 5.985 l 2.28 5.986 l -5.363 3.502 l -1.673 6.183 l -6.397 -0.319 l -4.797 3.863 Z m 14.416 13.816 l -2.179 6.972 l -10.252 -19.819 l 3.473 -2.798 l 5.879 0.294 L 49.1 59.832 l -6.368 -2.123 Z');"/>
    </g>
</svg>