<?xml version="1.0" encoding="UTF-8" standalone="no"?>
<!DOCTYPE svg PUBLIC "-//W3C//DTD SVG 1.1//EN" "http://www.w3.org/Graphics/SVG/1.1/DTD/svg11.dtd">
<svg width="100%" height="100%" viewBox="0 0 488 276" version="1.1" xmlns="http://www.w3.org/2000/svg" xmlns:xlink="http://www.w3.org/1999/xlink" xml:space="preserve" xmlns:serif="http://www.serif.com/" style="fill-rule:evenodd;clip-rule:evenodd;stroke-linecap:round;stroke-linejoin:round;stroke-miterlimit:1.5;">
    <rect x="0" y="0" width="487.108" height="275.65" style="fill:white;"/>
    <g transform="matrix(1,0,0,1,-15.9653,-162.728)">
        <g transform="matrix(0.998735,0,0,1.17504,0.0724416,-28.4845)">
            <rect x="57.272" y="162.728" width="413.315" height="34.607" style="fill:rgb(51,51,51);"/>
        </g>
        <g transform="matrix(1.17854,0,0,0.942001,-51.5315,44.0452)">
            <rect x="57.272" y="162.728" width="413.315" height="34.607" style="fill:rgb(51,51,51);"/>
        </g>
        <g transform="matrix(1,0,0,1,-0.453847,-1.67238)">
            <rect x="116.37" y="252.343" width="69.783" height="65.343" style="fill:none;stroke:rgb(51,51,51);stroke-width:2px;"/>
        </g>
        <g transform="matrix(1,0,0,1,107.546,-1.67238)">
            <rect x="116.37" y="252.343" width="69.783" height="65.343" style="fill:none;stroke:rgb(51,51,51);stroke-width:2px;"/>
        </g>
        <g transform="matrix(1,0,0,1,221.546,-1.67238)">
            <rect x="116.37" y="252.343" width="69.783" height="65.343" style="fill:none;stroke:rgb(51,51,51);stroke-width:2px;"/>
        </g>
        <g transform="matrix(1,0,0,1,221.546,82.3276)">
            <rect x="116.37" y="252.343" width="69.783" height="65.343" style="fill:none;stroke:rgb(51,51,51);stroke-width:2px;"/>
        </g>
        <g transform="matrix(1,0,0,1,-0.453847,82.3276)">
            <rect x="116.37" y="252.343" width="69.783" height="65.343" style="fill:none;stroke:rgb(51,51,51);stroke-width:2px;"/>
        </g>
        <g transform="matrix(5.23667,0,0,3.30622,-528.733,-612.959)">
            <rect x="116.37" y="252.343" width="69.783" height="65.343" style="fill:none;stroke:rgb(51,51,51);stroke-width:0.46px;"/>
        </g>
        <g transform="matrix(1,0,0,1.01151,0,-3.85149)">
            <rect x="223.917" y="334.67" width="69.783" height="100.275" style="fill:rgb(51,51,51);stroke:rgb(51,51,51);stroke-width:1.99px;"/>
        </g>
    </g>
</svg>
