<svg xmlns="http://www.w3.org/2000/svg" viewBox="-998.2017219180152 501.847899664016 178.186769031343 178.186769031343" role="img" preserveAspectRatio="xMidYMid meet" style="stroke-width: 1px;"><g><path d="M-823 538.3c-2.3-.8-3.9.7-4.7 3l-6.7 19.3c-3.1 1.3-8.8 2-12.4 2-6.9 0-13.4-2.6-17.5-6.8-1.7-1.8-4.8-1.8-6.5 0-4.1 4.3-10.6 6.8-17.5 6.8s-13.4-2.6-17.5-6.8c-1.7-1.8-4.8-1.8-6.5 0-4.1 4.3-10.6 6.8-17.5 6.8s-13.4-2.6-17.5-6.8c-1.7-1.8-4.8-1.8-6.5 0-4.1 4.3-10.6 6.8-17.5 6.8-3.6 0-9.4-.7-12.6-2.1l-6.6-19.3c-.8-2.3-2.3-3-4.6-2.2-2.3.8-2.4 2.7-1.6 5.1l29.3 84.9c.6 1.8 2.3 3 4.2 3h108c1.9 0 3.6-1.2 4.2-3l29.3-84.9c1-2.2 1-5-1.3-5.8zm-34.2 87.2h-103.9l-19-56.8c2.2.4 6.7.7 9 .7 7.8 0 16.7-2.1 20.7-6.7 3.6 4.6 12.9 6.7 20.7 6.7 7.8 0 17.3-2.2 20.7-6.7 3.3 4.6 12.9 6.7 20.7 6.7 7.8 0 16.2-2.2 20.7-6.7 5.6 4.3 12.9 6.7 20.7 6.7 2.2 0 6.7-.3 8.9-.7l-19.2 56.8z"/><path d="M-855 636.6h-108c-2.5 0-4.5 1.2-4.5 3.6 0 2.5 2 3.6 4.5 3.6h108c2.5 0 4.4-.8 4.4-3.6 0-2.4-1.9-3.6-4.4-3.6z"/><path d="M-916.5 595.7c1.6-1.1 2.3-2.6 2.3-4.5 0-.9-.2-1.7-.5-2.4s-.8-1.3-1.4-1.9c-.6-.5-1.3-.9-2.2-1.2-.8-.3-1.8-.5-2.9-.5-1.1 0-2.1.2-3 .6-.9.4-1.6.9-2.2 1.6-.6.7-1.1 1.4-1.5 2.3-.4.9-.7 1.8-.8 2.7h3.9c.1-.5.2-1 .4-1.5s.4-.9.7-1.3c.3-.4.7-.7 1.1-1 .4-.2.9-.4 1.4-.4.9 0 1.7.3 2.2.8.5.5.8 1.3.8 2.3 0 .3-.1.7-.2 1-.1.3-.3.6-.5.9-.2.3-.6.5-1 .7-.4.2-.9.3-1.4.3h-2.1v3.2h2.1c1.2 0 2.2.4 2.9 1.1.7.7 1.1 1.6 1.1 2.7 0 .5-.1 1-.3 1.5-.2.4-.5.8-.9 1.1-.4.3-.8.6-1.2.7-.4.2-.9.3-1.4.3-.4 0-.9-.1-1.3-.2-.5-.2-.9-.4-1.3-.8s-.8-.8-1.1-1.4c-.3-.6-.6-1.3-.7-2.2h-3.9c.5 2.4 1.5 4.3 2.9 5.7 1.4 1.3 3.2 2 5.4 2 1 0 2-.1 2.9-.4.9-.3 1.7-.7 2.4-1.3.7-.6 1.3-1.2 1.7-2.1.4-.8.6-1.8.6-2.9 0-1.4-.3-2.5-.9-3.4-.2-.9-1-1.6-2.1-2.1z"/><path d="M-896.4 588.2c-.7-1-1.5-1.7-2.5-2.2-1-.5-2.1-.8-3.4-.8-1.3 0-2.5.3-3.4.8-1 .5-1.8 1.3-2.5 2.2-.7 1-1.2 2.1-1.5 3.5-.3 1.4-.5 2.9-.5 4.6 0 1.7.2 3.3.5 4.6.3 1.4.8 2.5 1.5 3.5s1.5 1.7 2.5 2.2c1 .5 2.1.8 3.4.8 1.3 0 2.4-.3 3.4-.8s1.8-1.3 2.5-2.2c.7-1 1.2-2.1 1.5-3.5.3-1.4.5-2.9.5-4.6 0-1.7-.2-3.3-.5-4.6-.3-1.4-.8-2.6-1.5-3.5zm-2.1 11.8c-.2 1-.5 1.9-.9 2.5-.4.6-.8 1.1-1.3 1.4-.5.3-1 .5-1.6.5-.6 0-1.1-.2-1.6-.5s-.9-.8-1.3-1.4c-.4-.6-.7-1.5-.9-2.5-.2-1-.3-2.3-.3-3.7 0-1.4.1-2.7.3-3.7.2-1 .5-1.9.9-2.5.4-.7.8-1.1 1.3-1.5.5-.3 1-.5 1.6-.5.6 0 1.1.2 1.6.5s.9.8 1.3 1.5.7 1.5.9 2.5c.2 1 .3 2.3.3 3.7 0 1.4-.1 2.7-.3 3.7z"/><path d="M-882.2 583.9c-.4-.5-1-.9-1.6-1.2a5.09 5.09 0 0 0-4.4 0c-.6.3-1.2.7-1.6 1.2-.4.5-.8 1.1-1 1.8-.2.7-.3 1.4-.3 2.2 0 .8.1 1.5.3 2.2.2.7.6 1.3 1 1.8s1 .9 1.6 1.2c.6.3 1.4.4 2.2.4.8 0 1.6-.1 2.2-.4.6-.3 1.2-.7 1.6-1.2.4-.5.8-1.1 1-1.8.2-.7.3-1.4.3-2.2 0-.8-.1-1.5-.3-2.2-.3-.6-.6-1.2-1-1.8zm-1.4 5.5c-.1.4-.3.8-.5 1.1-.2.3-.5.6-.8.8-.3.2-.7.3-1.1.3-.4 0-.8-.1-1.1-.3-.3-.2-.6-.4-.8-.8-.2-.3-.4-.7-.5-1.1-.1-.4-.2-.9-.2-1.4 0-.5.1-1 .2-1.4.1-.4.3-.8.5-1.1.2-.3.5-.6.8-.8.3-.2.7-.3 1.1-.3.4 0 .8.1 1.1.3.3.2.6.4.8.8.2.3.4.7.5 1.1.1.4.2.9.2 1.4 0 .5-.1.9-.2 1.4z"/></g></svg>