<svg xmlns="http://www.w3.org/2000/svg" viewBox="7.5 0 185 200" role="img" preserveAspectRatio="xMidYMid meet" style="stroke-width: 0px;"><g><path d="M187.9 136.7V99.3c0-26.9-21.1-49.2-48.1-50.6l-38.7-.1v-3.8h-7v3.8H76.4c-5.5 0-10-4.5-10-10V7h4.7V0H7.5v7h4.6v45.1c0 27.9 22.8 50.7 50.7 50.7H94v4h7v-4h19c7.6 0 13.7 6.1 13.7 13.7v20.2h-4.6v7h63.4v-7h-4.6zM94 95.8h-3.6V59.9h-7v35.9H62.8c-24.1 0-43.7-19.6-43.7-43.6V7h40.2v31.6c0 9.4 7.7 17.1 17.1 17.1H94v40.1zm86.9 40.9h-40.2v-20.2c0-11.4-9.3-20.7-20.7-20.7h-18.9V55.7h3.4v36.8h7V55.6h25.6l1.3.1c23.8.6 42.5 19.8 42.5 43.6v37.4z"/><path d="M160.8 150.3l-2.7 4.4c-1.6 2.6-15.6 26.1-9.3 38.3 2.1 4.2 6.2 6.5 12 7h.3c6.3-.3 10.6-2.6 12.8-6.9 6.4-12.3-8.5-35.8-10.2-38.5l-2.9-4.3zm7.3 39.8c-1.1 2.1-3.5 3.2-6.9 3.4-3.4-.3-5.5-1.4-6.6-3.4-2.4-4.7 0-14.8 6.4-27.1 6.9 12.3 9.5 22.4 7.1 27.1z"/></g></svg>