<?xml version="1.0" standalone="no"?><!DOCTYPE svg PUBLIC "-//W3C//DTD SVG 1.1//EN" "http://www.w3.org/Graphics/SVG/1.1/DTD/svg11.dtd"><svg viewBox="19.499984741210938 33 161.00001525878906 134.0999755859375" role="img" preserveAspectRatio="xMidYMid meet" style="bottom:0px;display:block;height:84px;left:0px;position:absolute;right:0px;top:0px;width:75px;perspective-origin:37.5px 42px;transform-origin:37.5px 42px;stroke:rgb(237, 21, 102);stroke-width:0px;" version="1.1" xmlns="http://www.w3.org/2000/svg" xmlns:xlink="http://www.w3.org/1999/xlink">
    <g style="height:auto;overflow-x:visible;overflow-y:visible;width:auto;perspective-origin:0px 0px;transform-origin:0px 0px;stroke:rgb(237, 21, 102);stroke-width:0px;vector-effect:non-scaling-stroke;">
        <path d="M145.8 147.5c.2.1.5.2.7.4h34v-1.4c0-.5-2-46-50.9-46-.6 0-1.2 0-1.7.1v-.1h.7c9.7 0 17.9-6.5 20.9-15.6l3.8-.1c3.4 0 5.6-3.2 5.6-7.6V54.1c0-11.2-11.4-21.1-24.5-21.1h-11.2c-10.4 0-19.7 6.2-23.1 14.4C96.6 39.2 87.3 33 76.9 33H65.7c-13 0-24.5 9.9-24.5 21.1v23.1c0 4.4 2.2 7.6 5.6 7.6l3.8.1c2.7 8.4 10.1 14.6 18.8 15.5 0 .1.1.1.1.2-47.9.6-50 45.5-50 46v1.4h34s.1 0 .1-.1c-4.1 9.4-4.2 17.4-4.2 17.9v1.3h101.1v-1.4c-.1-.2-.5-8.6-4.7-18.2zm-16.2-44.3c42.2-.1 47.6 34.6 48.2 42.1H145c-.1.1-.1.2-.2.3-5.8-11.7-17.5-24.4-41.4-25.7 7.7-1.9 13.8-7.9 16.1-15.7h3.7c.5 0 1-.1 1.4-.3 1.6-.3 3.9-.7 5-.7zm-28.4 19.2c5.8.1 11 .9 15.4 2.2l-15.4 8.7v-10.9zm-2.7-4.7c-10.7 0-19.1-9-19.1-20.2V80.6c0-2.7 2.6-6.6 5.1-6.6h28.3c2.5 0 5.1 3.6 5.2 6.2v15.1l-.1 2.2c0 11.1-8.8 20.2-19.4 20.2zm21.7-16.3c.2-1.2.3-2.5.3-3.8v-6.8h2.6c1.9 0 3.2 2.9 3.2 5.5 0 2.5-1.1 5.1-3.2 5.1h-2.9zM148 77.6c0 9.6-8.4 17.6-17.6 19.6-.4.1-1.2.2-1.7.3l-.1.1c0-.4.1-.8.1-1.2V73.2c0-7.7-5.3-14.7-12.8-18.4h27c2.5 0 5.1 2.8 5.2 5.4v15.1l-.1 2.3zm5.2 4.5h-3c.3-1.5.4-3 .4-4.5v-6h2.6c1.9 0 3.2 2.9 3.2 5.5 0 2.5-1.1 5-3.2 5zm-30.1-46.5h11.2c11.5 0 21.7 8.6 21.7 18.5v11.7c0 1.6 0 3 .1 4.4-.8-.7-1.8-1.2-3-1.2h-2.6v-8.7c0-4.2-3.7-8.1-7.7-8.1l-12.5.1h-24.9c-.4 0-.8-.1-1.2-.1h-2.6c1.3-9.1 10.8-16.6 21.5-16.6zm-14.8 16.9c-.5-.1-1.1-.2-1.6-.2.7 0 1.2 0 1.6.2zm-4 2.3c11.5 0 21.7 8.6 21.7 18.5V85c0 1.6 0 3 .1 4.4-.8-.7-1.8-1.2-3-1.2h-2.6v-7.9c0-4.2-3.7-8.9-7.7-8.9H84.5c-4 0-7.7 5.2-7.7 9.3v7.5h-2.6c-1.1 0-2 .4-2.7 1v-16c0-9.8 10.1-18.5 21.6-18.5h11.2zm-27.2 46.5h-2.9c-2.1 0-3.2-2.5-3.2-5 0-2.7 1.3-5.5 3.2-5.5h2.6v6.8c-.1 1.2.1 2.5.3 3.7zM89 52.5c.8-.3 2.1-.3 4-.3-1.4-.1-2.7.1-4 .3zM46.8 82.1c-2.1 0-3.2-2.5-3.2-5 0-2.7 1.3-5.5 3.2-5.5h2.6v6c0 1.6.2 3.1.4 4.5h-3zm2.6-21.8V69h-2.6c-1.2 0-2.2.5-3 1.2.1-1.3.1-2.8.1-4.4V54.1c0-9.8 10.2-18.5 21.7-18.5h11.2c10.7 0 20.2 7.5 21.5 16.5H57.1c-4 0-7.7 4-7.7 8.2zm19.1 12.9v23.7c-.2-.1-.5-.1-.7-.2C59.4 94.1 52 86.6 52 77.6l-.1-2.2V60.3c0-2.7 2.6-5.4 5.2-5.4h24.3c-7.6 3.7-12.9 10.7-12.9 18.3zm-46.4 72c.7-7.5 6-42.2 48.2-42.1.3 0 .8 0 1.3.1.7.5 1.6.8 2.5.8h3.5c2.2 8 8.4 14.1 16.3 15.8-14.5 1.2-26 7.1-34.2 17.5-2 2.6-3.6 5.2-4.9 7.8H22.1zm76.5 19.2H51.7c.4-3.8 2.1-15.1 10.1-25.3 4.8-6.2 11-10.6 18.2-13.4l18.6 10.5v28.2zm0-31.2l-15.3-8.7c4.7-1.4 9.8-2.1 15.3-2.2v10.9zm2.6 31.2v-28.1l18.8-10.6c23.6 8.9 27.2 32.6 27.8 38.7h-46.6z" style="height:auto;overflow-x:visible;overflow-y:visible;width:auto;perspective-origin:0px 0px;transform-origin:0px 0px;stroke:rgb(237, 21, 102);stroke-width:0px;vector-effect:non-scaling-stroke;d:path('M 145.8 147.5 c 0.2 0.1 0.5 0.2 0.7 0.4 h 34 v -1.4 c 0 -0.5 -2 -46 -50.9 -46 c -0.6 0 -1.2 0 -1.7 0.1 v -0.1 h 0.7 c 9.7 0 17.9 -6.5 20.9 -15.6 l 3.8 -0.1 c 3.4 0 5.6 -3.2 5.6 -7.6 V 54.1 c 0 -11.2 -11.4 -21.1 -24.5 -21.1 h -11.2 c -10.4 0 -19.7 6.2 -23.1 14.4 C 96.6 39.2 87.3 33 76.9 33 H 65.7 c -13 0 -24.5 9.9 -24.5 21.1 v 23.1 c 0 4.4 2.2 7.6 5.6 7.6 l 3.8 0.1 c 2.7 8.4 10.1 14.6 18.8 15.5 c 0 0.1 0.1 0.1 0.1 0.2 c -47.9 0.6 -50 45.5 -50 46 v 1.4 h 34 s 0.1 0 0.1 -0.1 c -4.1 9.4 -4.2 17.4 -4.2 17.9 v 1.3 h 101.1 v -1.4 c -0.1 -0.2 -0.5 -8.6 -4.7 -18.2 Z m -16.2 -44.3 c 42.2 -0.1 47.6 34.6 48.2 42.1 H 145 c -0.1 0.1 -0.1 0.2 -0.2 0.3 c -5.8 -11.7 -17.5 -24.4 -41.4 -25.7 c 7.7 -1.9 13.8 -7.9 16.1 -15.7 h 3.7 c 0.5 0 1 -0.1 1.4 -0.3 c 1.6 -0.3 3.9 -0.7 5 -0.7 Z m -28.4 19.2 c 5.8 0.1 11 0.9 15.4 2.2 l -15.4 8.7 v -10.9 Z m -2.7 -4.7 c -10.7 0 -19.1 -9 -19.1 -20.2 V 80.6 c 0 -2.7 2.6 -6.6 5.1 -6.6 h 28.3 c 2.5 0 5.1 3.6 5.2 6.2 v 15.1 l -0.1 2.2 c 0 11.1 -8.8 20.2 -19.4 20.2 Z m 21.7 -16.3 c 0.2 -1.2 0.3 -2.5 0.3 -3.8 v -6.8 h 2.6 c 1.9 0 3.2 2.9 3.2 5.5 c 0 2.5 -1.1 5.1 -3.2 5.1 h -2.9 Z M 148 77.6 c 0 9.6 -8.4 17.6 -17.6 19.6 c -0.4 0.1 -1.2 0.2 -1.7 0.3 l -0.1 0.1 c 0 -0.4 0.1 -0.8 0.1 -1.2 V 73.2 c 0 -7.7 -5.3 -14.7 -12.8 -18.4 h 27 c 2.5 0 5.1 2.8 5.2 5.4 v 15.1 l -0.1 2.3 Z m 5.2 4.5 h -3 c 0.3 -1.5 0.4 -3 0.4 -4.5 v -6 h 2.6 c 1.9 0 3.2 2.9 3.2 5.5 c 0 2.5 -1.1 5 -3.2 5 Z m -30.1 -46.5 h 11.2 c 11.5 0 21.7 8.6 21.7 18.5 v 11.7 c 0 1.6 0 3 0.1 4.4 c -0.8 -0.7 -1.8 -1.2 -3 -1.2 h -2.6 v -8.7 c 0 -4.2 -3.7 -8.1 -7.7 -8.1 l -12.5 0.1 h -24.9 c -0.4 0 -0.8 -0.1 -1.2 -0.1 h -2.6 c 1.3 -9.1 10.8 -16.6 21.5 -16.6 Z m -14.8 16.9 c -0.5 -0.1 -1.1 -0.2 -1.6 -0.2 c 0.7 0 1.2 0 1.6 0.2 Z m -4 2.3 c 11.5 0 21.7 8.6 21.7 18.5 V 85 c 0 1.6 0 3 0.1 4.4 c -0.8 -0.7 -1.8 -1.2 -3 -1.2 h -2.6 v -7.9 c 0 -4.2 -3.7 -8.9 -7.7 -8.9 H 84.5 c -4 0 -7.7 5.2 -7.7 9.3 v 7.5 h -2.6 c -1.1 0 -2 0.4 -2.7 1 v -16 c 0 -9.8 10.1 -18.5 21.6 -18.5 h 11.2 Z m -27.2 46.5 h -2.9 c -2.1 0 -3.2 -2.5 -3.2 -5 c 0 -2.7 1.3 -5.5 3.2 -5.5 h 2.6 v 6.8 c -0.1 1.2 0.1 2.5 0.3 3.7 Z M 89 52.5 c 0.8 -0.3 2.1 -0.3 4 -0.3 c -1.4 -0.1 -2.7 0.1 -4 0.3 Z M 46.8 82.1 c -2.1 0 -3.2 -2.5 -3.2 -5 c 0 -2.7 1.3 -5.5 3.2 -5.5 h 2.6 v 6 c 0 1.6 0.2 3.1 0.4 4.5 h -3 Z m 2.6 -21.8 V 69 h -2.6 c -1.2 0 -2.2 0.5 -3 1.2 c 0.1 -1.3 0.1 -2.8 0.1 -4.4 V 54.1 c 0 -9.8 10.2 -18.5 21.7 -18.5 h 11.2 c 10.7 0 20.2 7.5 21.5 16.5 H 57.1 c -4 0 -7.7 4 -7.7 8.2 Z m 19.1 12.9 v 23.7 c -0.2 -0.1 -0.5 -0.1 -0.7 -0.2 C 59.4 94.1 52 86.6 52 77.6 l -0.1 -2.2 V 60.3 c 0 -2.7 2.6 -5.4 5.2 -5.4 h 24.3 c -7.6 3.7 -12.9 10.7 -12.9 18.3 Z m -46.4 72 c 0.7 -7.5 6 -42.2 48.2 -42.1 c 0.3 0 0.8 0 1.3 0.1 c 0.7 0.5 1.6 0.8 2.5 0.8 h 3.5 c 2.2 8 8.4 14.1 16.3 15.8 c -14.5 1.2 -26 7.1 -34.2 17.5 c -2 2.6 -3.6 5.2 -4.9 7.8 H 22.1 Z m 76.5 19.2 H 51.7 c 0.4 -3.8 2.1 -15.1 10.1 -25.3 c 4.8 -6.2 11 -10.6 18.2 -13.4 l 18.6 10.5 v 28.2 Z m 0 -31.2 l -15.3 -8.7 c 4.7 -1.4 9.8 -2.1 15.3 -2.2 v 10.9 Z m 2.6 31.2 v -28.1 l 18.8 -10.6 c 23.6 8.9 27.2 32.6 27.8 38.7 h -46.6 Z');"/>
        <path d="M109.9 136c-1.4 0-2.5 1.1-2.5 2.5s1.1 2.5 2.5 2.5 2.5-1.1 2.5-2.5-1.1-2.5-2.5-2.5zm0 2.7c-.1 0-.1-.1-.1-.1l.1-.1v.2z" style="height:auto;overflow-x:visible;overflow-y:visible;width:auto;perspective-origin:0px 0px;transform-origin:0px 0px;stroke:rgb(237, 21, 102);stroke-width:0px;vector-effect:non-scaling-stroke;d:path('M 109.9 136 c -1.4 0 -2.5 1.1 -2.5 2.5 s 1.1 2.5 2.5 2.5 s 2.5 -1.1 2.5 -2.5 s -1.1 -2.5 -2.5 -2.5 Z m 0 2.7 c -0.1 0 -0.1 -0.1 -0.1 -0.1 l 0.1 -0.1 v 0.2 Z');"/>
        <path d="M109.9 146.5c-1.4 0-2.5 1.1-2.5 2.5s1.1 2.5 2.5 2.5 2.5-1.1 2.5-2.5-1.1-2.5-2.5-2.5zm0 2.6c-.1 0-.1-.1-.1-.1l.1-.1v.2z" style="height:auto;overflow-x:visible;overflow-y:visible;width:auto;perspective-origin:0px 0px;transform-origin:0px 0px;stroke:rgb(237, 21, 102);stroke-width:0px;vector-effect:non-scaling-stroke;d:path('M 109.9 146.5 c -1.4 0 -2.5 1.1 -2.5 2.5 s 1.1 2.5 2.5 2.5 s 2.5 -1.1 2.5 -2.5 s -1.1 -2.5 -2.5 -2.5 Z m 0 2.6 c -0.1 0 -0.1 -0.1 -0.1 -0.1 l 0.1 -0.1 v 0.2 Z');"/>
    </g>
</svg>