<?xml version="1.0" standalone="no"?><!DOCTYPE svg PUBLIC "-//W3C//DTD SVG 1.1//EN" "http://www.w3.org/Graphics/SVG/1.1/DTD/svg11.dtd"><svg width="200" height="200" viewBox="0 22.900001525878906 200 154.10000610351562" role="img" preserveAspectRatio="xMidYMid meet" style="bottom:0px;display:block;height:84px;left:0px;position:absolute;right:0px;top:0px;width:75px;perspective-origin:37.5px 42px;transform-origin:37.5px 42px;stroke:rgb(237, 21, 102);stroke-width:0px;" version="1.1" xmlns="http://www.w3.org/2000/svg" xmlns:xlink="http://www.w3.org/1999/xlink">
    <g style="height:auto;overflow-x:visible;overflow-y:visible;width:auto;perspective-origin:0px 0px;transform-origin:0px 0px;stroke:rgb(237, 21, 102);stroke-width:0px;vector-effect:non-scaling-stroke;">
        <path d="M170.8 89.6c0 2.3-1.9 4.2-4.2 4.2H33.3c-2.3 0-4.2-1.9-4.2-4.2 0-2.3 1.9-4.2 4.2-4.2h133.3c2.4 0 4.2 1.9 4.2 4.2zM58.3 110.4h-25c-2.3 0-4.2 1.9-4.2 4.2 0 2.3 1.9 4.2 4.2 4.2h25c2.3 0 4.2-1.9 4.2-4.2 0-2.3-1.9-4.2-4.2-4.2zm58.4 0H83.3c-2.3 0-4.2 1.9-4.2 4.2 0 2.3 1.9 4.2 4.2 4.2h33.3c2.3 0 4.2-1.9 4.2-4.2 0-2.3-1.8-4.2-4.1-4.2zm50 0h-25c-2.3 0-4.2 1.9-4.2 4.2 0 2.3 1.9 4.2 4.2 4.2h25c2.3 0 4.2-1.9 4.2-4.2-.1-2.3-1.9-4.2-4.2-4.2zm-108.4 25h-25c-2.3 0-4.2 1.9-4.2 4.2 0 2.3 1.9 4.2 4.2 4.2h25c2.3 0 4.2-1.9 4.2-4.2 0-2.3-1.9-4.2-4.2-4.2zm58.4 0H83.3c-2.3 0-4.2 1.9-4.2 4.2 0 2.3 1.9 4.2 4.2 4.2h33.3c2.3 0 4.2-1.9 4.2-4.2 0-2.3-1.8-4.2-4.1-4.2zm50 0h-25c-2.3 0-4.2 1.9-4.2 4.2 0 2.3 1.9 4.2 4.2 4.2h25c2.3 0 4.2-1.9 4.2-4.2-.1-2.3-1.9-4.2-4.2-4.2zM200 56.2v108.3c0 6.9-5.6 12.5-12.5 12.5h-175C5.6 177 0 171.4 0 164.5V56.2c0-6.9 5.6-12.5 12.5-12.5H50V27.1c0-2.3 1.9-4.2 4.2-4.2 2.3 0 4.2 1.9 4.2 4.2v16.7h83.3V27.1c0-2.3 1.9-4.2 4.2-4.2 2.3 0 4.2 1.9 4.2 4.2v16.7h37.5c6.8 0 12.4 5.5 12.4 12.4zm-8.3 0c0-2.3-1.9-4.2-4.2-4.2H150v8.3c0 2.3-1.9 4.2-4.2 4.2-2.3 0-4.2-1.9-4.2-4.2V52H58.3v8.3c0 2.3-1.9 4.2-4.2 4.2-2.3 0-4.2-1.9-4.2-4.2V52H12.5c-2.3 0-4.2 1.9-4.2 4.2v108.3c0 2.3 1.9 4.2 4.2 4.2h175c2.3 0 4.2-1.9 4.2-4.2V56.2z" style="height:auto;overflow-x:visible;overflow-y:visible;width:auto;perspective-origin:0px 0px;transform-origin:0px 0px;stroke:rgb(237, 21, 102);stroke-width:0px;vector-effect:non-scaling-stroke;d:path('M 170.8 89.6 c 0 2.3 -1.9 4.2 -4.2 4.2 H 33.3 c -2.3 0 -4.2 -1.9 -4.2 -4.2 c 0 -2.3 1.9 -4.2 4.2 -4.2 h 133.3 c 2.4 0 4.2 1.9 4.2 4.2 Z M 58.3 110.4 h -25 c -2.3 0 -4.2 1.9 -4.2 4.2 c 0 2.3 1.9 4.2 4.2 4.2 h 25 c 2.3 0 4.2 -1.9 4.2 -4.2 c 0 -2.3 -1.9 -4.2 -4.2 -4.2 Z m 58.4 0 H 83.3 c -2.3 0 -4.2 1.9 -4.2 4.2 c 0 2.3 1.9 4.2 4.2 4.2 h 33.3 c 2.3 0 4.2 -1.9 4.2 -4.2 c 0 -2.3 -1.8 -4.2 -4.1 -4.2 Z m 50 0 h -25 c -2.3 0 -4.2 1.9 -4.2 4.2 c 0 2.3 1.9 4.2 4.2 4.2 h 25 c 2.3 0 4.2 -1.9 4.2 -4.2 c -0.1 -2.3 -1.9 -4.2 -4.2 -4.2 Z m -108.4 25 h -25 c -2.3 0 -4.2 1.9 -4.2 4.2 c 0 2.3 1.9 4.2 4.2 4.2 h 25 c 2.3 0 4.2 -1.9 4.2 -4.2 c 0 -2.3 -1.9 -4.2 -4.2 -4.2 Z m 58.4 0 H 83.3 c -2.3 0 -4.2 1.9 -4.2 4.2 c 0 2.3 1.9 4.2 4.2 4.2 h 33.3 c 2.3 0 4.2 -1.9 4.2 -4.2 c 0 -2.3 -1.8 -4.2 -4.1 -4.2 Z m 50 0 h -25 c -2.3 0 -4.2 1.9 -4.2 4.2 c 0 2.3 1.9 4.2 4.2 4.2 h 25 c 2.3 0 4.2 -1.9 4.2 -4.2 c -0.1 -2.3 -1.9 -4.2 -4.2 -4.2 Z M 200 56.2 v 108.3 c 0 6.9 -5.6 12.5 -12.5 12.5 h -175 C 5.6 177 0 171.4 0 164.5 V 56.2 c 0 -6.9 5.6 -12.5 12.5 -12.5 H 50 V 27.1 c 0 -2.3 1.9 -4.2 4.2 -4.2 c 2.3 0 4.2 1.9 4.2 4.2 v 16.7 h 83.3 V 27.1 c 0 -2.3 1.9 -4.2 4.2 -4.2 c 2.3 0 4.2 1.9 4.2 4.2 v 16.7 h 37.5 c 6.8 0 12.4 5.5 12.4 12.4 Z m -8.3 0 c 0 -2.3 -1.9 -4.2 -4.2 -4.2 H 150 v 8.3 c 0 2.3 -1.9 4.2 -4.2 4.2 c -2.3 0 -4.2 -1.9 -4.2 -4.2 V 52 H 58.3 v 8.3 c 0 2.3 -1.9 4.2 -4.2 4.2 c -2.3 0 -4.2 -1.9 -4.2 -4.2 V 52 H 12.5 c -2.3 0 -4.2 1.9 -4.2 4.2 v 108.3 c 0 2.3 1.9 4.2 4.2 4.2 h 175 c 2.3 0 4.2 -1.9 4.2 -4.2 V 56.2 Z');"/>
    </g>
</svg>