<svg xmlns="http://www.w3.org/2000/svg" viewBox="20.800003051757812 -0.10000000149011612 158.34445190429688 200.10000610351562" role="img" preserveAspectRatio="xMidYMid meet" style="stroke-width: 0px;"><g><path d="M179.1 78.4v-.2C179.1 35 144-.1 100.8-.1c-41.6 0-75.6 32.6-78 73.6-1.3 1.6-2 3.3-2 5.2 0 2.4 1.1 4.5 3.1 6.3l24.4 91.6c.1.4.3.8.5 1.2 4.1 6.7 17.5 22.2 52.8 22.2 33.4 0 46.4-14 51.2-22.3.2-.3.3-.7.4-1.1l25.3-95.1c.4-.9.6-1.8.6-2.8.1-.1 0-.2 0-.3zm-147.9.3c0-.1.1-.3.1-.4v-.8c6.8-4.1 30.9-9.6 68.6-9.6 41.8 0 66.9 6.8 70.3 10.9-3.4 4.1-28.5 10.9-70.3 10.9-37.3 0-61.2-5.4-68.4-9.5l-.3-1.5zm69.7-70c35 0 64 26 68.8 59.7-19.6-8.9-63.4-9.3-69.7-9.3-6.1 0-47.3.3-67.8 8.4 5.2-33.2 34-58.8 68.7-58.8zM145 173.8c-4.1 6.8-15.1 17.5-43.4 17.5-29.9 0-41.3-11.9-45-17.6l-22.1-83c21 7.3 59.7 7.6 65.6 7.6 6 0 46.7-.3 67.3-8.3L145 173.8z"/></g></svg>