<svg xmlns="http://www.w3.org/2000/svg" viewBox="0 41.70000076293945 200.09999084472656 116.70001220703125" role="img" preserveAspectRatio="xMidYMid meet" style="stroke-width: 0px;"><g><path d="M195.8 41.7H4.2c-2.3 0-4.2 1.9-4.2 4.2v108.3c0 2.3 1.9 4.2 4.2 4.2h191.7c2.3 0 4.2-1.9 4.2-4.2V45.8c-.1-2.3-2-4.1-4.3-4.1zM191.7 150H8.3V50h183.3v100zM29.2 133.3h33.3c6.9 0 12.5-5.6 12.5-12.5V79.2c0-6.9-5.6-12.5-12.5-12.5H29.2c-6.9 0-12.5 5.6-12.5 12.5v41.7c0 6.8 5.6 12.4 12.5 12.4zM25 79.2c0-2.3 1.9-4.2 4.2-4.2h33.3c2.3 0 4.2 1.9 4.2 4.2v41.7c0 2.3-1.9 4.2-4.2 4.2H29.2c-2.3 0-4.2-1.9-4.2-4.2V79.2zm66.7 8.3c0-2.3 1.9-4.2 4.2-4.2h75c2.3 0 4.2 1.9 4.2 4.2s-1.9 4.2-4.2 4.2h-75c-2.4 0-4.2-1.9-4.2-4.2zm0 25c0-2.3 1.9-4.2 4.2-4.2h75c2.3 0 4.2 1.9 4.2 4.2s-1.9 4.2-4.2 4.2h-75c-2.4 0-4.2-1.9-4.2-4.2z"/></g></svg>