<svg xmlns="http://www.w3.org/2000/svg" viewBox="0 0 200 200" role="img" preserveAspectRatio="xMidYMid meet" style="stroke-width: 0px;"><g><path d="M100 0C44.9 0 0 44.9 0 100s44.9 100 100 100 100-44.9 100-100S155.1 0 100 0zM42.8 172.7c.1-.3.2-.7.2-1 0-14.4 13.4-20.8 26.6-20.8h8.7c1.3 0 2.6-.7 3.2-1.9l6.7-12c4 2.3 8.5 3.7 13.2 3.7 4.5 0 8.7-1.3 12.5-3.4l8 12c.7 1 1.8 1.6 3.1 1.6h8.7c14.8 0 23.3 7.6 23.3 20.8 0 .4.1.7.2 1-15.8 12.4-35.6 19.9-57.2 19.9s-41.5-7.5-57.2-19.9zm87.5-90.2c1.5.7 3.4 2 3.6 2.4v11.6c0 .6 0 2.1-4.3 2.1-2 0-3.7 1.7-3.7 3.7 0 9.6-5.2 20.7-12.8 26.6-.1 0-.2.1-.3.1l-.2.2c-3.4 2.5-7.2 4-11.2 4-14 0-25.9-17-25.9-31 0-2-1.7-3.7-3.7-3.7-4 0-5.7-1.5-5.7-2.1V85.1c.3-.6 2.1-2 3.6-2.7 1.3-.6 2.2-1.9 2.2-3.4V67.6c0-6.4 0-13.6 22.3-13.6.8 0 1.6-.3 2.2-.7 6.1-4.5 12.6-6.5 18.5-6.5 6 0 11.3 2 14.4 5.4 3.6 3.8 3.5 8.5-.4 13.1-.6.7-.9 1.5-.9 2.4v11.6c.1 1.3 1 2.6 2.3 3.2zm33.8 84.3c-2-14.5-13.3-23.3-30.4-23.3H127l-7.1-10.6c7.4-6.8 12.3-17.1 13.2-27.2 5.9-1.2 8.1-5.3 8.1-9.2V84.9c0-3.8-3.3-6.5-5.8-8v-8.1c5.4-7.3 5.2-15.6-.8-21.9-8.3-8.7-26.4-11.3-41.7-.5-20.2.2-28.5 6.4-28.5 21v9.3c-2.5 1.5-5.8 4.2-5.8 8v11.6c0 4.7 3.8 8.2 9.6 9.2 1 9.7 6.3 20 13.9 26.9L76 143.3h-6.5c-18 0-31.1 9.4-33.6 23.3C18.4 150 7.4 126.2 7.4 100 7.4 48.9 48.9 7.4 100 7.4s92.6 41.5 92.6 92.6c0 26.2-11 49.9-28.5 66.8z"/></g></svg>